<?xml version="1.0" encoding="UTF-8"?>
<!DOCTYPE svg PUBLIC "-//W3C//DTD SVG 1.1//EN" "http://www.w3.org/Graphics/SVG/1.1/DTD/svg11.dtd">
<svg xmlns="http://www.w3.org/2000/svg" version="1.1" width="98px" height="32px" style="shape-rendering:geometricPrecision; text-rendering:geometricPrecision; image-rendering:optimizeQuality; fill-rule:evenodd; clip-rule:evenodd" xmlns:xlink="http://www.w3.org/1999/xlink">
<g><path style="opacity:0.369" fill="#686868" d="M 38.5,2.5 C 56.8454,2.16711 75.1788,2.50044 93.5,3.5C 84.3333,3.83333 75.1667,4.16667 66,4.5C 56.4748,4.49834 47.3081,3.83168 38.5,2.5 Z"/></g>
<g><path style="opacity:0.866" fill="#717171" d="M 46.5,21.5 C 46.1788,19.9519 45.1788,19.2852 43.5,19.5C 43.8174,16.4281 43.4841,13.4281 42.5,10.5C 41.8933,10.6236 41.56,10.9569 41.5,11.5C 40.596,10.791 40.2627,9.79105 40.5,8.5C 45.1806,7.69946 49.0139,9.0328 52,12.5C 52.9053,17.2233 51.072,20.2233 46.5,21.5 Z M 44.5,11.5 C 48.8413,11.5186 50.1747,13.5186 48.5,17.5C 47.3112,18.4287 45.9778,18.762 44.5,18.5C 44.5,16.1667 44.5,13.8333 44.5,11.5 Z"/></g>
<g><path style="opacity:0.784" fill="#9e9e9e" d="M 83.5,9.5 C 81.8333,9.5 80.1667,9.5 78.5,9.5C 78.8128,13.0419 78.4794,16.3752 77.5,19.5C 76.8333,7.5 76.1667,7.5 75.5,19.5C 74.6805,16.6946 74.1805,13.6946 74,10.5C 73.8195,13.6946 73.3195,16.6946 72.5,19.5C 72.577,15.7852 72.2436,12.1185 71.5,8.5C 75.5399,8.81709 79.5399,9.15043 83.5,9.5 Z M 77.5,19.5 C 76.8333,19.5 76.1667,19.5 75.5,19.5C 76.1667,7.5 76.8333,7.5 77.5,19.5 Z"/></g>
<g><path style="opacity:0.72" fill="#464646" d="M 61.5,9.5 C 61.5777,12.4867 60.411,13.1534 58,11.5C 56.9701,11.8361 56.4701,12.5028 56.5,13.5C 57.2625,14.2679 58.2625,14.7679 59.5,15C 58.2068,15.49 56.8734,15.6567 55.5,15.5C 55.5,16.8333 55.5,18.1667 55.5,19.5C 57.7812,19.9227 59.4479,19.256 60.5,17.5C 61.4345,18.5676 61.7678,19.901 61.5,21.5C 58.4281,21.8174 55.4281,21.4841 52.5,20.5C 52.6236,19.8933 52.9569,19.56 53.5,19.5C 54.8184,16.4355 54.8184,13.2688 53.5,10C 56.146,9.50258 58.8127,9.33591 61.5,9.5 Z"/></g>
<g><path style="opacity:0.654" fill="#4f4f4f" d="M 97.5,9.5 C 97.5,10.5 97.5,11.5 97.5,12.5C 95.8828,11.962 94.2161,11.6287 92.5,11.5C 91.596,12.209 91.2627,13.209 91.5,14.5C 93.4832,14.1568 94.8166,14.8235 95.5,16.5C 94.5,16.5 93.5,16.5 92.5,16.5C 91.596,17.209 91.2627,18.209 91.5,19.5C 93.099,19.7678 94.4324,19.4345 95.5,18.5C 95.8417,17.6618 96.5084,17.3284 97.5,17.5C 97.5,18.5 97.5,19.5 97.5,20.5C 94.537,21.7412 91.537,21.7412 88.5,20.5C 89.671,16.5177 89.671,12.5177 88.5,8.5C 91.6085,8.26414 94.6085,8.59748 97.5,9.5 Z"/></g>
<g><path style="opacity:1" fill="#444444" d="M 46.5,21.5 C 44.396,21.7989 42.396,21.4656 40.5,20.5C 41.4066,17.5788 41.7399,14.5788 41.5,11.5C 41.56,10.9569 41.8933,10.6236 42.5,10.5C 43.4841,13.4281 43.8174,16.4281 43.5,19.5C 45.1788,19.2852 46.1788,19.9519 46.5,21.5 Z"/></g>
<g><path style="opacity:0.078" fill="#c2c2c2" d="M 61.5,9.5 C 58.8127,9.33591 56.146,9.50258 53.5,10C 54.8184,13.2688 54.8184,16.4355 53.5,19.5C 53.577,15.7852 53.2436,12.1185 52.5,8.5C 55.7131,8.19 58.7131,8.52333 61.5,9.5 Z"/></g>
<g><path style="opacity:0.137" fill="#b3b3b3" d="M 92.5,11.5 C 93.1834,13.1765 94.5168,13.8432 96.5,13.5C 96.7373,14.791 96.404,15.791 95.5,16.5C 94.8166,14.8235 93.4832,14.1568 91.5,14.5C 91.2627,13.209 91.596,12.209 92.5,11.5 Z"/></g>
<g><path style="opacity:0.176" fill="#595959" d="M 17.5,4.5 C 17.5,5.16667 17.8333,5.5 18.5,5.5C 18.8333,5.5 19.1667,5.5 19.5,5.5C 19.5,6.16667 19.8333,6.5 20.5,6.5C 20.8333,6.5 21.1667,6.5 21.5,6.5C 21.5,7.16667 21.8333,7.5 22.5,7.5C 23.9073,9.30826 25.074,11.3083 26,13.5C 26.3418,11.3808 27.1751,11.0474 28.5,12.5C 28.81,15.7131 28.4767,18.7131 27.5,21.5C 26.1839,17.6029 25.1839,17.9363 24.5,22.5C 23.8333,22.5 23.5,22.8333 23.5,23.5C 22.8333,23.5 22.5,23.8333 22.5,24.5C 21.8333,24.5 21.5,24.8333 21.5,25.5C 21.1667,25.5 20.8333,25.5 20.5,25.5C 19.8333,25.5 19.5,25.8333 19.5,26.5C 19.1667,26.5 18.8333,26.5 18.5,26.5C 17.8333,26.8333 17.1667,27.1667 16.5,27.5C 15.5,27.5 14.5,27.5 13.5,27.5C 13.5,19.8333 13.5,12.1667 13.5,4.5C 14.8333,4.5 16.1667,4.5 17.5,4.5 Z"/></g>
<g><path style="opacity:0.098" fill="#7e7e7e" d="M 56.5,13.5 C 57.8333,13.5 59.1667,13.5 60.5,13.5C 60.5,14.5 60.5,15.5 60.5,16.5C 59.0222,16.238 57.6888,16.5713 56.5,17.5C 57.8084,18.6256 59.1417,18.6256 60.5,17.5C 59.4479,19.256 57.7812,19.9227 55.5,19.5C 55.5,18.1667 55.5,16.8333 55.5,15.5C 56.8734,15.6567 58.2068,15.49 59.5,15C 58.2625,14.7679 57.2625,14.2679 56.5,13.5 Z"/></g>
<g><path style="opacity:0.851" fill="#585858" d="M 83.5,9.5 C 87.1396,11.1019 87.4729,13.4352 84.5,16.5C 85.5,17.8333 86.5,19.1667 87.5,20.5C 86.635,21.5827 85.635,21.7494 84.5,21C 83.2125,19.5905 82.0458,18.0905 81,16.5C 80.4054,17.8989 80.5721,19.2322 81.5,20.5C 80.8333,20.8333 80.1667,21.1667 79.5,21.5C 77.7226,20.3965 75.8893,20.3965 74,21.5C 73.1667,21.1667 72.3333,20.8333 71.5,20.5C 71.6236,19.8933 71.9569,19.56 72.5,19.5C 73.3195,16.6946 73.8195,13.6946 74,10.5C 74.1805,13.6946 74.6805,16.6946 75.5,19.5C 76.1667,19.5 76.8333,19.5 77.5,19.5C 78.4794,16.3752 78.8128,13.0419 78.5,9.5C 80.1667,9.5 81.8333,9.5 83.5,9.5 Z M 80.5,11.5 C 83.9571,11.6672 84.2904,12.6672 81.5,14.5C 80.6143,13.675 80.281,12.675 80.5,11.5 Z M 77.5,19.5 C 76.8333,19.5 76.1667,19.5 75.5,19.5C 76.1667,7.5 76.8333,7.5 77.5,19.5 Z"/></g>
<g><path style="opacity:0.076" fill="#cecece" d="M 92.5,16.5 C 92.8212,18.0481 93.8212,18.7148 95.5,18.5C 94.4324,19.4345 93.099,19.7678 91.5,19.5C 91.2627,18.209 91.596,17.209 92.5,16.5 Z"/></g>
<g><path style="opacity:0.788" fill="#6b6b6b" d="M 68.5,13.5 C 70.4998,15.5286 70.8332,17.8619 69.5,20.5C 67.5675,21.5202 65.5675,21.6869 63.5,21C 62.2528,19.5064 62.2528,18.0064 63.5,16.5C 64.8689,18.124 66.5355,18.624 68.5,18C 66.8333,16.8333 65.1667,15.6667 63.5,14.5C 62.6158,9.88882 64.6158,8.05549 69.5,9C 71.0432,11.0449 70.7099,12.5449 68.5,13.5 Z M 68.5,13.5 C 66.0172,13.27 65.5172,12.6034 67,11.5C 68.0299,11.8361 68.5299,12.5028 68.5,13.5 Z"/></g>
<g><path style="opacity:0.651" fill="#636363" d="M 28.5,12.5 C 27.1751,11.0474 26.3418,11.3808 26,13.5C 25.074,11.3083 23.9073,9.30826 22.5,7.5C 21.8333,7.5 21.5,7.16667 21.5,6.5C 21.1667,5.16667 20.8333,5.16667 20.5,6.5C 19.8333,6.5 19.5,6.16667 19.5,5.5C 19.1667,4.16667 18.8333,4.16667 18.5,5.5C 17.8333,5.5 17.5,5.16667 17.5,4.5C 8.63391,2.62216 3.30058,6.28882 1.5,15.5C 2.78584,24.5995 7.78584,28.5995 16.5,27.5C 17.1667,27.1667 17.8333,26.8333 18.5,26.5C 18.8333,27.8333 19.1667,27.8333 19.5,26.5C 19.5,25.8333 19.8333,25.5 20.5,25.5C 20.8333,26.8333 21.1667,26.8333 21.5,25.5C 22.1667,25.5 22.5,25.1667 22.5,24.5C 23.1667,24.5 23.5,24.1667 23.5,23.5C 24.1667,23.5 24.5,23.1667 24.5,22.5C 25.1839,17.9363 26.1839,17.6029 27.5,21.5C 22.4663,30.7325 15.133,32.8991 5.5,28C 2.84741,25.8663 0.847413,23.3663 -0.5,20.5C -0.5,17.5 -0.5,14.5 -0.5,11.5C 4.36878,1.41688 12.0355,-1.24979 22.5,3.5C 25.7476,5.66003 27.7476,8.66003 28.5,12.5 Z"/></g>
<g><path style="opacity:0.043" fill="#9b9b9b" d="M 38.5,26.5 C 56.8454,26.1671 75.1788,26.5004 93.5,27.5C 84.3333,27.8333 75.1667,28.1667 66,28.5C 56.4748,28.4983 47.3081,27.8317 38.5,26.5 Z"/></g>
</svg>
