<?xml version="1.0" encoding="utf-8"?><svg viewBox="0 0 502.66 502.66" xmlns="http://www.w3.org/2000/svg" xmlns:xlink="http://www.w3.org/1999/xlink"><style>:root>svg{display:none}:root>svg:target{display:block}</style><svg viewBox="0 0 24 24" id="call" xmlns="http://www.w3.org/2000/svg"><path d="M18.167 14.38c-.672-.145-1.203.167-1.674.44-.482.28-1.398 1.023-1.923.833-2.689-1.107-5.218-3.46-6.313-6.16-.193-.537.547-1.459.826-1.946.27-.472.576-1.008.436-1.685-.126-.608-1.754-2.68-2.33-3.247-.38-.374-.768-.58-1.168-.613-1.5-.064-3.177 1.939-3.472 2.418-.736 1.022-.732 2.382.013 4.03 1.795 4.429 8.585 11.112 13.03 12.975.82.383 1.57.575 2.245.575.659 0 1.246-.183 1.75-.548.381-.22 2.467-1.98 2.412-3.521-.033-.393-.238-.786-.608-1.167-.562-.58-2.62-2.257-3.224-2.384z"/></svg><svg viewBox="0 0 14 15" id="close" xmlns="http://www.w3.org/2000/svg"><path d="M1.492 2L12.6 13.107m-11.2.001L12.508 2"/></svg><svg viewBox="0 0 3 13" id="i" xmlns="http://www.w3.org/2000/svg"><path d="M1.549 1.87c-.594 0-.89-.28-.89-.84 0-.55.296-.824.89-.824.593 0 .89.275.89.824 0 .56-.297.84-.89.84zm0 10.214c-.448 0-.672-.246-.672-.74v-6.87c0-.482.224-.723.672-.723.459 0 .689.24.689.722v6.872c0 .492-.23.739-.69.739z"/></svg><svg viewBox="0 0 502.664 502.664" id="icon" xmlns="http://www.w3.org/2000/svg"><path d="M153.821 358.226L0 274.337v-46.463l153.821-83.414v54.574L46.636 250.523l107.185 53.431v54.272zm26.273 29.358L282.103 115.08h32.227L212.084 387.584h-31.99zm168.749-29.358v-54.272l107.164-52.999-107.164-52.59v-53.927l153.821 83.522v46.183l-153.821 84.083z"/></svg><svg viewBox="0 0 40 40" id="next" xmlns="http://www.w3.org/2000/svg"><path fill-rule="evenodd" clip-rule="evenodd" d="M36.667 20c0 9.2-7.484 16.667-16.667 16.667l-.466-.007c-8.985-.247-16.2-7.616-16.2-16.66C3.334 10.817 10.8 3.333 20 3.333c9.183 0 16.667 7.484 16.667 16.667zM16.7 13.333c-.483.5-.483 1.284.017 1.767l4.917 4.9-4.917 4.9c-.5.483-.5 1.283-.017 1.767.5.5 1.284.5 1.767 0l5.817-5.784a1.249 1.249 0 000-1.766l-5.817-5.784a1.173 1.173 0 00-.867-.366c-.333 0-.65.116-.9.366z"/></svg><svg viewBox="0 0 40 40" id="prev" xmlns="http://www.w3.org/2000/svg"><path fill-rule="evenodd" clip-rule="evenodd" d="M3.333 20c0 9.2 7.483 16.667 16.667 16.667l.466-.007c8.985-.247 16.2-7.616 16.2-16.66C36.666 10.817 29.2 3.333 20 3.333 10.816 3.333 3.333 10.817 3.333 20zM23.3 13.333c.483.5.483 1.284-.017 1.767L18.366 20l4.917 4.9c.5.483.5 1.283.017 1.767-.5.5-1.284.5-1.767 0l-5.817-5.784a1.249 1.249 0 010-1.766l5.817-5.784c.233-.25.55-.366.867-.366.333 0 .65.116.9.366z"/></svg></svg>